<svg xmlns="http://www.w3.org/2000/svg" width="39" height="40" viewBox="0 0 39 40">
  <defs>
    <style>
      .cls-1 {
        fill: #558bed;
        fill-rule: evenodd;
      }
    </style>
  </defs>
  <path id="Fill_6" data-name="Fill 6" class="cls-1" d="M19.476,39.441A19.482,19.482,0,0,1,11.9,2.018,19.481,19.481,0,0,1,27.057,37.91,19.355,19.355,0,0,1,19.476,39.441Zm-1.733-9.155h1.572v1.762h3.833V30.286h0.145a5.976,5.976,0,0,0,5.971-5.968V23.986a5.978,5.978,0,0,0-1.922-4.374A5.685,5.685,0,0,0,28.549,16.1V15.785a5.751,5.751,0,0,0-5.4-5.73V7.881H19.314v2.156H17.743V7.881H13.911v2.156H11.117V13.87h1.9V26.454h-1.9v3.832h2.794v1.762h3.832V30.287h0Zm6.974-14.5A1.92,1.92,0,0,0,22.8,13.869H16.851v4.147H22.8A1.92,1.92,0,0,0,24.717,16.1V15.786ZM22.8,21.85H16.851v4.6h6.441a2.138,2.138,0,0,0,2.137-2.136V23.986a2.139,2.139,0,0,0-2.137-2.136H22.8Z"/>
</svg>
