<svg xmlns="http://www.w3.org/2000/svg" width="20" height="20" viewBox="0 0 20 20">
  <defs>
    <style>
      .cls-1 {
        fill: #878fbc;
        fill-rule: evenodd;
      }
    </style>
  </defs>
  <path id="icon" class="cls-1" d="M10.308,20a2.567,2.567,0,0,1-1.226-.313L1.889,15.763a1.707,1.707,0,0,1,0-3l1.164-.635L1.889,11.5a1.707,1.707,0,0,1,0-3l1.164-.635L1.889,7.232a1.707,1.707,0,0,1,0-3L9.083,0.313a2.555,2.555,0,0,1,2.451,0l7.194,3.923a1.706,1.706,0,0,1,0,3l-1.164.635L18.728,8.5a1.706,1.706,0,0,1,0,3l-1.164.634,1.164,0.635a1.706,1.706,0,0,1,0,3l-7.194,3.924A2.567,2.567,0,0,1,10.308,20ZM4.834,13.1L2.705,14.266,9.9,18.19a0.85,0.85,0,0,0,.817,0l7.195-3.924L15.783,13.1l-4.249,2.317a2.556,2.556,0,0,1-2.451,0Zm0-4.266L2.705,10,9.9,13.924a0.85,0.85,0,0,0,.817,0L17.912,10,15.783,8.839l-4.249,2.317a2.559,2.559,0,0,1-2.451,0Zm5.475-7.133a0.859,0.859,0,0,0-.409.1L2.705,5.735,9.9,9.659a0.854,0.854,0,0,0,.817,0l7.195-3.924L10.717,1.81A0.854,0.854,0,0,0,10.309,1.706Z"/>
</svg>
