<svg xmlns="http://www.w3.org/2000/svg" width="20" height="20" viewBox="0 0 20 20">
  <defs>
    <style>
      .cls-1 {
        fill: #878fbc;
        fill-rule: evenodd;
      }
    </style>
  </defs>
  <path id="icon" class="cls-1" d="M17.5,18H2.5A2.5,2.5,0,0,1,0,15.5V5.5A2.5,2.5,0,0,1,2.5,3h15A2.5,2.5,0,0,1,20,5.5v10A2.5,2.5,0,0,1,17.5,18ZM1.667,8v7.5a0.834,0.834,0,0,0,.834.833h15a0.834,0.834,0,0,0,.834-0.833V8H1.667ZM2.5,4.667a0.834,0.834,0,0,0-.834.833V6.334H18.333V5.5A0.835,0.835,0,0,0,17.5,4.667H2.5Zm6.666,10h-5a0.834,0.834,0,1,1,0-1.667h5A0.834,0.834,0,0,1,9.166,14.667Z"/>
</svg>
